<?xml version="1.0" encoding="UTF-8"?>
<svg xmlns="http://www.w3.org/2000/svg" viewBox="0 0 300 300" width="300" height="300">
  <defs>
    <clipPath id="frame"><rect width="300" height="300" rx="20"/></clipPath>
    <linearGradient id="sky-g" x1="0" y1="0" x2="0" y2="1">
      <stop offset="0%"   stop-color="#020115"/>
      <stop offset="100%" stop-color="#08033a"/>
    </linearGradient>
    <style>
      /* ======= 背景星のまたたき ======= */
      .tw { transform-box: fill-box; transform-origin: 50% 50%; }
      .tw1 { animation: tw 2.4s ease-in-out infinite;           }
      .tw2 { animation: tw 3.2s ease-in-out infinite alternate; animation-delay: 0.7s; }
      .tw3 { animation: tw 1.9s ease-in-out infinite;           animation-delay: 1.4s; }
      .tw4 { animation: tw 2.8s ease-in-out infinite alternate; animation-delay: 0.3s; }
      .tw5 { animation: tw 3.5s ease-in-out infinite;           animation-delay: 1.9s; }
      @keyframes tw {
        0%,100% { opacity: 0.07; transform: scale(0.4); }
        50%     { opacity: 0.9;  transform: scale(1.0); }
      }

      /* ======= 花火の打ち上げ（下から上へ）======= */
      /* transform-box / origin 不要: translateY のみで移動 */
      .rkt1 { animation: rocket 10s ease-in infinite; animation-delay: 0.0s; }
      .rkt2 { animation: rocket 10s ease-in infinite; animation-delay: 1.5s; }
      .rkt3 { animation: rocket 10s ease-in infinite; animation-delay: 3.0s; }
      .rkt4 { animation: rocket 10s ease-in infinite; animation-delay: 4.5s; }
      .rkt5 { animation: rocket 10s ease-in infinite; animation-delay: 0.7s; }
      .rkt6 { animation: rocket 10s ease-in infinite; animation-delay: 2.2s; }
      @keyframes rocket {
        0%,3%    { transform: translateY(95px); opacity: 0;   }
        4%       {                               opacity: 0.9; }
        7%       { transform: translateY(0px);  opacity: 0;   }
        100%     {                               opacity: 0;   }
      }

      /* ======= 花火の開花（スケール＋フェード）======= */
      .burst {
        transform-box: fill-box; transform-origin: 50% 50%;
      }
      .bst1 { animation: burst 10s ease-out infinite; animation-delay: 0.0s; }
      .bst2 { animation: burst 10s ease-out infinite; animation-delay: 1.5s; }
      .bst3 { animation: burst 10s ease-out infinite; animation-delay: 3.0s; }
      .bst4 { animation: burst 10s ease-out infinite; animation-delay: 4.5s; }
      .bst5 { animation: burst 10s ease-out infinite; animation-delay: 0.7s; }
      .bst6 { animation: burst 10s ease-out infinite; animation-delay: 2.2s; }
      @keyframes burst {
        0%,6%    { transform: scale(0);    opacity: 0;    }
        10%      { transform: scale(1.12); opacity: 1;    }
        16%      { transform: scale(1.00); opacity: 0.92; }
        52%      { transform: scale(1.65); opacity: 0;    }
        53%,100% { transform: scale(0);    opacity: 0;    }
      }
    </style>
  </defs>

  <g clip-path="url(#frame)">

    <!-- ===== 夜空の背景 ===== -->
    <rect width="300" height="300" fill="url(#sky-g)"/>

    <!-- ===== 背景の星 ===== -->
    <circle class="tw tw1" cx="18"  cy="22"  r="1.2" fill="#fff"    opacity="0.8"/>
    <circle class="tw tw3" cx="55"  cy="14"  r="1.0" fill="#fffde7" opacity="0.75"/>
    <circle class="tw tw5" cx="98"  cy="28"  r="1.5" fill="#fff"    opacity="0.9"/>
    <circle class="tw tw2" cx="138" cy="16"  r="1.0" fill="#fff"    opacity="0.72"/>
    <circle class="tw tw4" cx="185" cy="10"  r="1.2" fill="#fffde7" opacity="0.8"/>
    <circle class="tw tw1" cx="225" cy="25"  r="1.5" fill="#fff"    opacity="0.88"/>
    <circle class="tw tw3" cx="268" cy="12"  r="1.0" fill="#fffde7" opacity="0.72"/>
    <circle class="tw tw5" cx="288" cy="35"  r="1.2" fill="#fff"    opacity="0.78"/>
    <circle class="tw tw2" cx="12"  cy="60"  r="1.0" fill="#fff"    opacity="0.7"/>
    <circle class="tw tw4" cx="288" cy="70"  r="1.2" fill="#fffde7" opacity="0.75"/>
    <circle class="tw tw3" cx="75"  cy="45"  r="1.0" fill="#fff"    opacity="0.68"/>
    <circle class="tw tw1" cx="240" cy="48"  r="1.0" fill="#fff"    opacity="0.7"/>
    <circle class="tw tw5" cx="118" cy="32"  r="1.2" fill="#fffde7" opacity="0.78"/>

    <!-- ===== 花火1：金色（左中） ===== -->
    <g transform="translate(88, 92)">
      <!-- 打ち上げ（下から上へ） -->
      <g class="rkt1">
        <ellipse cx="0" cy="0" rx="2" ry="10" fill="#ffd54f" opacity="0.9"/>
        <circle cx="0" cy="-10" r="3" fill="#fff9c4"/>
      </g>
      <!-- 開花 -->
      <g class="bst1 burst">
        <!-- 周囲グロー -->
        <circle r="62" fill="#ffd700" opacity="0.10"/>
        <!-- 長い光線（8本・45°間隔） -->
        <line x1="0" y1="-7" x2="0"  y2="-42" stroke="#ffd700" stroke-width="2.5" stroke-linecap="round"/>
        <line x1="0" y1="-7" x2="0"  y2="-42" stroke="#ffd700" stroke-width="2.5" stroke-linecap="round" transform="rotate(45)"/>
        <line x1="0" y1="-7" x2="0"  y2="-42" stroke="#ffd700" stroke-width="2.5" stroke-linecap="round" transform="rotate(90)"/>
        <line x1="0" y1="-7" x2="0"  y2="-42" stroke="#ffd700" stroke-width="2.5" stroke-linecap="round" transform="rotate(135)"/>
        <line x1="0" y1="-7" x2="0"  y2="-42" stroke="#ffd700" stroke-width="2.5" stroke-linecap="round" transform="rotate(180)"/>
        <line x1="0" y1="-7" x2="0"  y2="-42" stroke="#ffd700" stroke-width="2.5" stroke-linecap="round" transform="rotate(225)"/>
        <line x1="0" y1="-7" x2="0"  y2="-42" stroke="#ffd700" stroke-width="2.5" stroke-linecap="round" transform="rotate(270)"/>
        <line x1="0" y1="-7" x2="0"  y2="-42" stroke="#ffd700" stroke-width="2.5" stroke-linecap="round" transform="rotate(315)"/>
        <!-- 短い光線（8本・22.5°オフセット） -->
        <line x1="0" y1="-7" x2="0"  y2="-28" stroke="#ffb300" stroke-width="1.8" stroke-linecap="round" opacity="0.75" transform="rotate(22.5)"/>
        <line x1="0" y1="-7" x2="0"  y2="-28" stroke="#ffb300" stroke-width="1.8" stroke-linecap="round" opacity="0.75" transform="rotate(67.5)"/>
        <line x1="0" y1="-7" x2="0"  y2="-28" stroke="#ffb300" stroke-width="1.8" stroke-linecap="round" opacity="0.75" transform="rotate(112.5)"/>
        <line x1="0" y1="-7" x2="0"  y2="-28" stroke="#ffb300" stroke-width="1.8" stroke-linecap="round" opacity="0.75" transform="rotate(157.5)"/>
        <line x1="0" y1="-7" x2="0"  y2="-28" stroke="#ffb300" stroke-width="1.8" stroke-linecap="round" opacity="0.75" transform="rotate(202.5)"/>
        <line x1="0" y1="-7" x2="0"  y2="-28" stroke="#ffb300" stroke-width="1.8" stroke-linecap="round" opacity="0.75" transform="rotate(247.5)"/>
        <line x1="0" y1="-7" x2="0"  y2="-28" stroke="#ffb300" stroke-width="1.8" stroke-linecap="round" opacity="0.75" transform="rotate(292.5)"/>
        <line x1="0" y1="-7" x2="0"  y2="-28" stroke="#ffb300" stroke-width="1.8" stroke-linecap="round" opacity="0.75" transform="rotate(337.5)"/>
        <!-- 先端の玉 -->
        <circle cx="0" cy="-42" r="2.8" fill="#fff9c4"/>
        <circle cx="0" cy="-42" r="2.8" fill="#fff9c4" transform="rotate(45)"/>
        <circle cx="0" cy="-42" r="2.8" fill="#fff9c4" transform="rotate(90)"/>
        <circle cx="0" cy="-42" r="2.8" fill="#fff9c4" transform="rotate(135)"/>
        <circle cx="0" cy="-42" r="2.8" fill="#fff9c4" transform="rotate(180)"/>
        <circle cx="0" cy="-42" r="2.8" fill="#fff9c4" transform="rotate(225)"/>
        <circle cx="0" cy="-42" r="2.8" fill="#fff9c4" transform="rotate(270)"/>
        <circle cx="0" cy="-42" r="2.8" fill="#fff9c4" transform="rotate(315)"/>
        <!-- 中央の輝き -->
        <circle r="7" fill="#fffde7" opacity="0.95"/>
      </g>
    </g>

    <!-- ===== 花火2：赤・紅（右中） ===== -->
    <g transform="translate(212, 75)">
      <g class="rkt2">
        <ellipse cx="0" cy="0" rx="2" ry="10" fill="#ff8a80" opacity="0.9"/>
        <circle cx="0" cy="-10" r="3" fill="#ffcdd2"/>
      </g>
      <g class="bst2 burst">
        <circle r="62" fill="#f44336" opacity="0.10"/>
        <line x1="0" y1="-7" x2="0"  y2="-42" stroke="#f44336" stroke-width="2.5" stroke-linecap="round"/>
        <line x1="0" y1="-7" x2="0"  y2="-42" stroke="#f44336" stroke-width="2.5" stroke-linecap="round" transform="rotate(45)"/>
        <line x1="0" y1="-7" x2="0"  y2="-42" stroke="#f44336" stroke-width="2.5" stroke-linecap="round" transform="rotate(90)"/>
        <line x1="0" y1="-7" x2="0"  y2="-42" stroke="#f44336" stroke-width="2.5" stroke-linecap="round" transform="rotate(135)"/>
        <line x1="0" y1="-7" x2="0"  y2="-42" stroke="#f44336" stroke-width="2.5" stroke-linecap="round" transform="rotate(180)"/>
        <line x1="0" y1="-7" x2="0"  y2="-42" stroke="#f44336" stroke-width="2.5" stroke-linecap="round" transform="rotate(225)"/>
        <line x1="0" y1="-7" x2="0"  y2="-42" stroke="#f44336" stroke-width="2.5" stroke-linecap="round" transform="rotate(270)"/>
        <line x1="0" y1="-7" x2="0"  y2="-42" stroke="#f44336" stroke-width="2.5" stroke-linecap="round" transform="rotate(315)"/>
        <line x1="0" y1="-7" x2="0"  y2="-28" stroke="#e53935" stroke-width="1.8" stroke-linecap="round" opacity="0.75" transform="rotate(22.5)"/>
        <line x1="0" y1="-7" x2="0"  y2="-28" stroke="#e53935" stroke-width="1.8" stroke-linecap="round" opacity="0.75" transform="rotate(67.5)"/>
        <line x1="0" y1="-7" x2="0"  y2="-28" stroke="#e53935" stroke-width="1.8" stroke-linecap="round" opacity="0.75" transform="rotate(112.5)"/>
        <line x1="0" y1="-7" x2="0"  y2="-28" stroke="#e53935" stroke-width="1.8" stroke-linecap="round" opacity="0.75" transform="rotate(157.5)"/>
        <line x1="0" y1="-7" x2="0"  y2="-28" stroke="#e53935" stroke-width="1.8" stroke-linecap="round" opacity="0.75" transform="rotate(202.5)"/>
        <line x1="0" y1="-7" x2="0"  y2="-28" stroke="#e53935" stroke-width="1.8" stroke-linecap="round" opacity="0.75" transform="rotate(247.5)"/>
        <line x1="0" y1="-7" x2="0"  y2="-28" stroke="#e53935" stroke-width="1.8" stroke-linecap="round" opacity="0.75" transform="rotate(292.5)"/>
        <line x1="0" y1="-7" x2="0"  y2="-28" stroke="#e53935" stroke-width="1.8" stroke-linecap="round" opacity="0.75" transform="rotate(337.5)"/>
        <circle cx="0" cy="-42" r="2.8" fill="#ffcdd2"/>
        <circle cx="0" cy="-42" r="2.8" fill="#ffcdd2" transform="rotate(45)"/>
        <circle cx="0" cy="-42" r="2.8" fill="#ffcdd2" transform="rotate(90)"/>
        <circle cx="0" cy="-42" r="2.8" fill="#ffcdd2" transform="rotate(135)"/>
        <circle cx="0" cy="-42" r="2.8" fill="#ffcdd2" transform="rotate(180)"/>
        <circle cx="0" cy="-42" r="2.8" fill="#ffcdd2" transform="rotate(225)"/>
        <circle cx="0" cy="-42" r="2.8" fill="#ffcdd2" transform="rotate(270)"/>
        <circle cx="0" cy="-42" r="2.8" fill="#ffcdd2" transform="rotate(315)"/>
        <circle r="7" fill="#ffebee" opacity="0.95"/>
      </g>
    </g>

    <!-- ===== 花火3：水色・シアン（中央上） ===== -->
    <g transform="translate(150, 52)">
      <g class="rkt3">
        <ellipse cx="0" cy="0" rx="2" ry="10" fill="#80deea" opacity="0.9"/>
        <circle cx="0" cy="-10" r="3" fill="#e0f7fa"/>
      </g>
      <g class="bst3 burst">
        <circle r="62" fill="#00bcd4" opacity="0.10"/>
        <line x1="0" y1="-7" x2="0"  y2="-42" stroke="#00bcd4" stroke-width="2.5" stroke-linecap="round"/>
        <line x1="0" y1="-7" x2="0"  y2="-42" stroke="#00bcd4" stroke-width="2.5" stroke-linecap="round" transform="rotate(45)"/>
        <line x1="0" y1="-7" x2="0"  y2="-42" stroke="#00bcd4" stroke-width="2.5" stroke-linecap="round" transform="rotate(90)"/>
        <line x1="0" y1="-7" x2="0"  y2="-42" stroke="#00bcd4" stroke-width="2.5" stroke-linecap="round" transform="rotate(135)"/>
        <line x1="0" y1="-7" x2="0"  y2="-42" stroke="#00bcd4" stroke-width="2.5" stroke-linecap="round" transform="rotate(180)"/>
        <line x1="0" y1="-7" x2="0"  y2="-42" stroke="#00bcd4" stroke-width="2.5" stroke-linecap="round" transform="rotate(225)"/>
        <line x1="0" y1="-7" x2="0"  y2="-42" stroke="#00bcd4" stroke-width="2.5" stroke-linecap="round" transform="rotate(270)"/>
        <line x1="0" y1="-7" x2="0"  y2="-42" stroke="#00bcd4" stroke-width="2.5" stroke-linecap="round" transform="rotate(315)"/>
        <line x1="0" y1="-7" x2="0"  y2="-28" stroke="#0097a7" stroke-width="1.8" stroke-linecap="round" opacity="0.75" transform="rotate(22.5)"/>
        <line x1="0" y1="-7" x2="0"  y2="-28" stroke="#0097a7" stroke-width="1.8" stroke-linecap="round" opacity="0.75" transform="rotate(67.5)"/>
        <line x1="0" y1="-7" x2="0"  y2="-28" stroke="#0097a7" stroke-width="1.8" stroke-linecap="round" opacity="0.75" transform="rotate(112.5)"/>
        <line x1="0" y1="-7" x2="0"  y2="-28" stroke="#0097a7" stroke-width="1.8" stroke-linecap="round" opacity="0.75" transform="rotate(157.5)"/>
        <line x1="0" y1="-7" x2="0"  y2="-28" stroke="#0097a7" stroke-width="1.8" stroke-linecap="round" opacity="0.75" transform="rotate(202.5)"/>
        <line x1="0" y1="-7" x2="0"  y2="-28" stroke="#0097a7" stroke-width="1.8" stroke-linecap="round" opacity="0.75" transform="rotate(247.5)"/>
        <line x1="0" y1="-7" x2="0"  y2="-28" stroke="#0097a7" stroke-width="1.8" stroke-linecap="round" opacity="0.75" transform="rotate(292.5)"/>
        <line x1="0" y1="-7" x2="0"  y2="-28" stroke="#0097a7" stroke-width="1.8" stroke-linecap="round" opacity="0.75" transform="rotate(337.5)"/>
        <circle cx="0" cy="-42" r="2.8" fill="#b2ebf2"/>
        <circle cx="0" cy="-42" r="2.8" fill="#b2ebf2" transform="rotate(45)"/>
        <circle cx="0" cy="-42" r="2.8" fill="#b2ebf2" transform="rotate(90)"/>
        <circle cx="0" cy="-42" r="2.8" fill="#b2ebf2" transform="rotate(135)"/>
        <circle cx="0" cy="-42" r="2.8" fill="#b2ebf2" transform="rotate(180)"/>
        <circle cx="0" cy="-42" r="2.8" fill="#b2ebf2" transform="rotate(225)"/>
        <circle cx="0" cy="-42" r="2.8" fill="#b2ebf2" transform="rotate(270)"/>
        <circle cx="0" cy="-42" r="2.8" fill="#b2ebf2" transform="rotate(315)"/>
        <circle r="7" fill="#e0f7fa" opacity="0.95"/>
      </g>
    </g>

    <!-- ===== 花火4：黄緑・ライム（左上） ===== -->
    <g transform="translate(52, 72)">
      <g class="rkt4">
        <ellipse cx="0" cy="0" rx="2" ry="10" fill="#c5e1a5" opacity="0.9"/>
        <circle cx="0" cy="-10" r="3" fill="#f1f8e9"/>
      </g>
      <g class="bst4 burst">
        <circle r="62" fill="#8bc34a" opacity="0.10"/>
        <line x1="0" y1="-7" x2="0"  y2="-42" stroke="#8bc34a" stroke-width="2.5" stroke-linecap="round"/>
        <line x1="0" y1="-7" x2="0"  y2="-42" stroke="#8bc34a" stroke-width="2.5" stroke-linecap="round" transform="rotate(45)"/>
        <line x1="0" y1="-7" x2="0"  y2="-42" stroke="#8bc34a" stroke-width="2.5" stroke-linecap="round" transform="rotate(90)"/>
        <line x1="0" y1="-7" x2="0"  y2="-42" stroke="#8bc34a" stroke-width="2.5" stroke-linecap="round" transform="rotate(135)"/>
        <line x1="0" y1="-7" x2="0"  y2="-42" stroke="#8bc34a" stroke-width="2.5" stroke-linecap="round" transform="rotate(180)"/>
        <line x1="0" y1="-7" x2="0"  y2="-42" stroke="#8bc34a" stroke-width="2.5" stroke-linecap="round" transform="rotate(225)"/>
        <line x1="0" y1="-7" x2="0"  y2="-42" stroke="#8bc34a" stroke-width="2.5" stroke-linecap="round" transform="rotate(270)"/>
        <line x1="0" y1="-7" x2="0"  y2="-42" stroke="#8bc34a" stroke-width="2.5" stroke-linecap="round" transform="rotate(315)"/>
        <line x1="0" y1="-7" x2="0"  y2="-28" stroke="#558b2f" stroke-width="1.8" stroke-linecap="round" opacity="0.75" transform="rotate(22.5)"/>
        <line x1="0" y1="-7" x2="0"  y2="-28" stroke="#558b2f" stroke-width="1.8" stroke-linecap="round" opacity="0.75" transform="rotate(67.5)"/>
        <line x1="0" y1="-7" x2="0"  y2="-28" stroke="#558b2f" stroke-width="1.8" stroke-linecap="round" opacity="0.75" transform="rotate(112.5)"/>
        <line x1="0" y1="-7" x2="0"  y2="-28" stroke="#558b2f" stroke-width="1.8" stroke-linecap="round" opacity="0.75" transform="rotate(157.5)"/>
        <line x1="0" y1="-7" x2="0"  y2="-28" stroke="#558b2f" stroke-width="1.8" stroke-linecap="round" opacity="0.75" transform="rotate(202.5)"/>
        <line x1="0" y1="-7" x2="0"  y2="-28" stroke="#558b2f" stroke-width="1.8" stroke-linecap="round" opacity="0.75" transform="rotate(247.5)"/>
        <line x1="0" y1="-7" x2="0"  y2="-28" stroke="#558b2f" stroke-width="1.8" stroke-linecap="round" opacity="0.75" transform="rotate(292.5)"/>
        <line x1="0" y1="-7" x2="0"  y2="-28" stroke="#558b2f" stroke-width="1.8" stroke-linecap="round" opacity="0.75" transform="rotate(337.5)"/>
        <circle cx="0" cy="-42" r="2.8" fill="#dcedc8"/>
        <circle cx="0" cy="-42" r="2.8" fill="#dcedc8" transform="rotate(45)"/>
        <circle cx="0" cy="-42" r="2.8" fill="#dcedc8" transform="rotate(90)"/>
        <circle cx="0" cy="-42" r="2.8" fill="#dcedc8" transform="rotate(135)"/>
        <circle cx="0" cy="-42" r="2.8" fill="#dcedc8" transform="rotate(180)"/>
        <circle cx="0" cy="-42" r="2.8" fill="#dcedc8" transform="rotate(225)"/>
        <circle cx="0" cy="-42" r="2.8" fill="#dcedc8" transform="rotate(270)"/>
        <circle cx="0" cy="-42" r="2.8" fill="#dcedc8" transform="rotate(315)"/>
        <circle r="7" fill="#f1f8e9" opacity="0.95"/>
      </g>
    </g>

    <!-- ===== 花火5：紫（右上） ===== -->
    <g transform="translate(250, 62)">
      <g class="rkt5">
        <ellipse cx="0" cy="0" rx="2" ry="10" fill="#ce93d8" opacity="0.9"/>
        <circle cx="0" cy="-10" r="3" fill="#f3e5f5"/>
      </g>
      <g class="bst5 burst">
        <circle r="62" fill="#9c27b0" opacity="0.10"/>
        <line x1="0" y1="-7" x2="0"  y2="-42" stroke="#ce93d8" stroke-width="2.5" stroke-linecap="round"/>
        <line x1="0" y1="-7" x2="0"  y2="-42" stroke="#ce93d8" stroke-width="2.5" stroke-linecap="round" transform="rotate(45)"/>
        <line x1="0" y1="-7" x2="0"  y2="-42" stroke="#ce93d8" stroke-width="2.5" stroke-linecap="round" transform="rotate(90)"/>
        <line x1="0" y1="-7" x2="0"  y2="-42" stroke="#ce93d8" stroke-width="2.5" stroke-linecap="round" transform="rotate(135)"/>
        <line x1="0" y1="-7" x2="0"  y2="-42" stroke="#ce93d8" stroke-width="2.5" stroke-linecap="round" transform="rotate(180)"/>
        <line x1="0" y1="-7" x2="0"  y2="-42" stroke="#ce93d8" stroke-width="2.5" stroke-linecap="round" transform="rotate(225)"/>
        <line x1="0" y1="-7" x2="0"  y2="-42" stroke="#ce93d8" stroke-width="2.5" stroke-linecap="round" transform="rotate(270)"/>
        <line x1="0" y1="-7" x2="0"  y2="-42" stroke="#ce93d8" stroke-width="2.5" stroke-linecap="round" transform="rotate(315)"/>
        <line x1="0" y1="-7" x2="0"  y2="-28" stroke="#7b1fa2" stroke-width="1.8" stroke-linecap="round" opacity="0.75" transform="rotate(22.5)"/>
        <line x1="0" y1="-7" x2="0"  y2="-28" stroke="#7b1fa2" stroke-width="1.8" stroke-linecap="round" opacity="0.75" transform="rotate(67.5)"/>
        <line x1="0" y1="-7" x2="0"  y2="-28" stroke="#7b1fa2" stroke-width="1.8" stroke-linecap="round" opacity="0.75" transform="rotate(112.5)"/>
        <line x1="0" y1="-7" x2="0"  y2="-28" stroke="#7b1fa2" stroke-width="1.8" stroke-linecap="round" opacity="0.75" transform="rotate(157.5)"/>
        <line x1="0" y1="-7" x2="0"  y2="-28" stroke="#7b1fa2" stroke-width="1.8" stroke-linecap="round" opacity="0.75" transform="rotate(202.5)"/>
        <line x1="0" y1="-7" x2="0"  y2="-28" stroke="#7b1fa2" stroke-width="1.8" stroke-linecap="round" opacity="0.75" transform="rotate(247.5)"/>
        <line x1="0" y1="-7" x2="0"  y2="-28" stroke="#7b1fa2" stroke-width="1.8" stroke-linecap="round" opacity="0.75" transform="rotate(292.5)"/>
        <line x1="0" y1="-7" x2="0"  y2="-28" stroke="#7b1fa2" stroke-width="1.8" stroke-linecap="round" opacity="0.75" transform="rotate(337.5)"/>
        <circle cx="0" cy="-42" r="2.8" fill="#e1bee7"/>
        <circle cx="0" cy="-42" r="2.8" fill="#e1bee7" transform="rotate(45)"/>
        <circle cx="0" cy="-42" r="2.8" fill="#e1bee7" transform="rotate(90)"/>
        <circle cx="0" cy="-42" r="2.8" fill="#e1bee7" transform="rotate(135)"/>
        <circle cx="0" cy="-42" r="2.8" fill="#e1bee7" transform="rotate(180)"/>
        <circle cx="0" cy="-42" r="2.8" fill="#e1bee7" transform="rotate(225)"/>
        <circle cx="0" cy="-42" r="2.8" fill="#e1bee7" transform="rotate(270)"/>
        <circle cx="0" cy="-42" r="2.8" fill="#e1bee7" transform="rotate(315)"/>
        <circle r="7" fill="#f3e5f5" opacity="0.95"/>
      </g>
    </g>

    <!-- ===== 花火6：ピンク・白（中央やや右） ===== -->
    <g transform="translate(172, 38)">
      <g class="rkt6">
        <ellipse cx="0" cy="0" rx="2" ry="10" fill="#f8bbd0" opacity="0.9"/>
        <circle cx="0" cy="-10" r="3" fill="#fce4ec"/>
      </g>
      <g class="bst6 burst">
        <circle r="62" fill="#f06292" opacity="0.10"/>
        <line x1="0" y1="-7" x2="0"  y2="-42" stroke="#f48fb1" stroke-width="2.5" stroke-linecap="round"/>
        <line x1="0" y1="-7" x2="0"  y2="-42" stroke="#f48fb1" stroke-width="2.5" stroke-linecap="round" transform="rotate(45)"/>
        <line x1="0" y1="-7" x2="0"  y2="-42" stroke="#f48fb1" stroke-width="2.5" stroke-linecap="round" transform="rotate(90)"/>
        <line x1="0" y1="-7" x2="0"  y2="-42" stroke="#f48fb1" stroke-width="2.5" stroke-linecap="round" transform="rotate(135)"/>
        <line x1="0" y1="-7" x2="0"  y2="-42" stroke="#f48fb1" stroke-width="2.5" stroke-linecap="round" transform="rotate(180)"/>
        <line x1="0" y1="-7" x2="0"  y2="-42" stroke="#f48fb1" stroke-width="2.5" stroke-linecap="round" transform="rotate(225)"/>
        <line x1="0" y1="-7" x2="0"  y2="-42" stroke="#f48fb1" stroke-width="2.5" stroke-linecap="round" transform="rotate(270)"/>
        <line x1="0" y1="-7" x2="0"  y2="-42" stroke="#f48fb1" stroke-width="2.5" stroke-linecap="round" transform="rotate(315)"/>
        <line x1="0" y1="-7" x2="0"  y2="-28" stroke="#e91e63" stroke-width="1.8" stroke-linecap="round" opacity="0.75" transform="rotate(22.5)"/>
        <line x1="0" y1="-7" x2="0"  y2="-28" stroke="#e91e63" stroke-width="1.8" stroke-linecap="round" opacity="0.75" transform="rotate(67.5)"/>
        <line x1="0" y1="-7" x2="0"  y2="-28" stroke="#e91e63" stroke-width="1.8" stroke-linecap="round" opacity="0.75" transform="rotate(112.5)"/>
        <line x1="0" y1="-7" x2="0"  y2="-28" stroke="#e91e63" stroke-width="1.8" stroke-linecap="round" opacity="0.75" transform="rotate(157.5)"/>
        <line x1="0" y1="-7" x2="0"  y2="-28" stroke="#e91e63" stroke-width="1.8" stroke-linecap="round" opacity="0.75" transform="rotate(202.5)"/>
        <line x1="0" y1="-7" x2="0"  y2="-28" stroke="#e91e63" stroke-width="1.8" stroke-linecap="round" opacity="0.75" transform="rotate(247.5)"/>
        <line x1="0" y1="-7" x2="0"  y2="-28" stroke="#e91e63" stroke-width="1.8" stroke-linecap="round" opacity="0.75" transform="rotate(292.5)"/>
        <line x1="0" y1="-7" x2="0"  y2="-28" stroke="#e91e63" stroke-width="1.8" stroke-linecap="round" opacity="0.75" transform="rotate(337.5)"/>
        <circle cx="0" cy="-42" r="2.8" fill="#fce4ec"/>
        <circle cx="0" cy="-42" r="2.8" fill="#fce4ec" transform="rotate(45)"/>
        <circle cx="0" cy="-42" r="2.8" fill="#fce4ec" transform="rotate(90)"/>
        <circle cx="0" cy="-42" r="2.8" fill="#fce4ec" transform="rotate(135)"/>
        <circle cx="0" cy="-42" r="2.8" fill="#fce4ec" transform="rotate(180)"/>
        <circle cx="0" cy="-42" r="2.8" fill="#fce4ec" transform="rotate(225)"/>
        <circle cx="0" cy="-42" r="2.8" fill="#fce4ec" transform="rotate(270)"/>
        <circle cx="0" cy="-42" r="2.8" fill="#fce4ec" transform="rotate(315)"/>
        <circle r="7" fill="#fff" opacity="0.95"/>
      </g>
    </g>

    <!-- ===== 街のシルエット ===== -->
    <path d="M 0,300 L 0,272 L 18,272 L 18,258 L 28,258 L 28,248
             L 42,248 L 42,255 L 55,255 L 55,240 L 65,240 L 65,248
             L 80,248 L 80,260 L 92,260 L 92,244 L 105,244 L 105,255
             L 120,255 L 120,265 L 135,265 L 135,248 L 148,248 L 148,258
             L 160,258 L 160,268 L 168,268 L 168,250 L 178,250 L 178,262
             L 192,262 L 192,242 L 205,242 L 205,255 L 218,255 L 218,248
             L 232,248 L 232,258 L 245,258 L 245,265 L 260,265 L 260,250
             L 272,250 L 272,262 L 285,262 L 285,270 L 300,270 L 300,300 Z"
          fill="#050228"/>
    <!-- 街のわずかな明かり（ビルの窓） -->
    <rect x="32"  y="252" width="3" height="2" fill="#ffe082" opacity="0.4"/>
    <rect x="57"  y="244" width="2" height="2" fill="#ffe082" opacity="0.35"/>
    <rect x="95"  y="248" width="3" height="2" fill="#ffe082" opacity="0.4"/>
    <rect x="138" y="252" width="2" height="2" fill="#ffe082" opacity="0.35"/>
    <rect x="170" y="254" width="3" height="2" fill="#ffe082" opacity="0.4"/>
    <rect x="196" y="246" width="2" height="2" fill="#ffe082" opacity="0.38"/>
    <rect x="235" y="252" width="3" height="2" fill="#ffe082" opacity="0.35"/>
    <rect x="263" y="254" width="2" height="2" fill="#ffe082" opacity="0.4"/>

  </g>
</svg>
