<svg width="300" height="300" viewBox="0 0 300 300" xmlns="http://www.w3.org/2000/svg">
  <rect width="300" height="300" rx="20" fill="#E3F2FD"/>
  
  <path d="M 0 230 Q 150 220 300 230 L 300 300 L 0 300 Z" fill="#8D6E63"/>

  <rect x="0" y="140" width="300" height="40" fill="#455A64"/>
  <rect x="0" y="158" width="300" height="4" fill="#37474F"/> <g transform="translate(0, -10)">
    <g transform="translate(0, 0)">
      <circle cx="50" cy="170" r="35" fill="#C8E6C9" stroke="#90CAF9" stroke-width="1"/>
      <rect x="38" y="150" width="24" height="12" rx="3" fill="white"/>
      <rect x="36" y="147" width="28" height="10" rx="4" fill="#E91E63"/>
      <rect x="38" y="167" width="24" height="12" rx="3" fill="white"/>
      <rect x="36" y="164" width="28" height="10" rx="4" fill="#E91E63"/>
      
      <circle cx="200" cy="170" r="35" fill="#C8E6C9" stroke="#90CAF9" stroke-width="1"/>
      <rect x="188" y="150" width="24" height="12" rx="3" fill="white"/>
      <rect x="186" y="147" width="28" height="10" rx="4" fill="#FFEB3B"/>
      <rect x="197" y="147" width="6" height="15" fill="#212121"/>
      <rect x="188" y="167" width="24" height="12" rx="3" fill="white"/>
      <rect x="186" y="164" width="28" height="10" rx="4" fill="#FFEB3B"/>
      <rect x="197" y="164" width="6" height="15" fill="#212121"/>
    </g>

    <g transform="translate(300, 0)">
      <circle cx="50" cy="170" r="35" fill="#C8E6C9" stroke="#90CAF9" stroke-width="1"/>
      <rect x="38" y="150" width="24" height="12" rx="3" fill="white"/><rect x="36" y="147" width="28" height="10" rx="4" fill="#E91E63"/>
      <rect x="38" y="167" width="24" height="12" rx="3" fill="white"/><rect x="36" y="164" width="28" height="10" rx="4" fill="#E91E63"/>

      <circle cx="200" cy="170" r="35" fill="#C8E6C9" stroke="#90CAF9" stroke-width="1"/>
      <rect x="188" y="150" width="24" height="12" rx="3" fill="white"/><rect x="186" y="147" width="28" height="10" rx="4" fill="#FFEB3B"/><rect x="197" y="147" width="6" height="15" fill="#212121"/>
      <rect x="188" y="167" width="24" height="12" rx="3" fill="white"/><rect x="186" y="164" width="28" height="10" rx="4" fill="#FFEB3B"/><rect x="197" y="164" width="6" height="15" fill="#212121"/>
    </g>

    <animateTransform 
      attributeName="transform" 
      type="translate" 
      from="0 0" 
      to="-300 0" 
      dur="12s" 
      repeatCount="indefinite" additive="sum"/>
  </g>

  <path d="M 60 235 L 90 235 L 85 275 L 65 275 Z" fill="#3E2723" stroke="#212121" stroke-width="1"/>
  <rect x="65" y="225" width="20" height="10" rx="2" fill="#212121"/>
  
  <rect x="120" y="240" width="40" height="50" rx="5" fill="#B0BEC5" stroke="#78909C" stroke-width="1"/>
  <rect x="128" y="225" width="6" height="30" fill="#A1887F" rx="1"/>
  <rect x="138" y="225" width="6" height="30" fill="#A1887F" rx="1"/>
  <rect x="148" y="225" width="6" height="30" fill="#A1887F" rx="1"/>

  <rect x="240" y="225" width="35" height="50" rx="5" fill="#2E7D32"/>
  <path d="M 240 230 L 275 230" stroke="#1B5E20" stroke-width="2"/>
</svg>