<?xml version="1.0" encoding="UTF-8"?>
<svg xmlns="http://www.w3.org/2000/svg" viewBox="0 0 300 300" width="300" height="300">
  <defs>
    <clipPath id="frame"><rect width="300" height="300" rx="20"/></clipPath>
    <clipPath id="screen-clip">
      <rect x="63" y="62" width="175" height="115" rx="2"/>
    </clipPath>
    <pattern id="scanlines" x="0" y="0" width="2" height="4" patternUnits="userSpaceOnUse">
      <rect width="2" height="1" y="0" fill="#000000" opacity="0.10"/>
    </pattern>
    <style>
      /* 電源ボタン：OFF→ON のみ */
      .power-btn {
        animation: power-anim 7s ease-in-out infinite;
      }
      @keyframes power-anim {
        0%,14%  { fill: #424242; }   /* OFF */
        17%     { fill: #ef5350; }   /* 押した瞬間（赤） */
        21%,91% { fill: #4caf50; }   /* ON（緑） */
        94%,100%{ fill: #424242; }   /* リセット用に一瞬OFF */
      }

      /* リモコンボタン：1回だけ光る */
      .remote-btn {
        transform-box: fill-box;
        transform-origin: 50% 50%;
        animation: remote-press 7s infinite;
      }
      @keyframes remote-press {
        0%,14%  { fill: #616161; transform: scale(1); }
        16%     { fill: #ef5350; transform: scale(1.4); }
        19%     { fill: #616161; transform: scale(1); }
        100%    { fill: #616161; }
      }

      /* 起動フラッシュ */
      .screen-flash {
        animation: flash-anim 7s infinite;
        opacity: 0;
      }
      @keyframes flash-anim {
        0%,19%  { opacity: 0; }
        22%     { opacity: 1; }
        25%     { opacity: 0.3; }
        27%     { opacity: 0.9; }
        30%     { opacity: 0; }
        100%    { opacity: 0; }
      }

      /* 画面コンテンツ（ON） */
      .screen-content {
        animation: content-anim 7s infinite;
        opacity: 0;
      }
      @keyframes content-anim {
        0%,27%  { opacity: 0; }
        33%     { opacity: 1; }
        89%     { opacity: 1; }
        93%     { opacity: 0; }
        100%    { opacity: 0; }
      }

      /* 暗い画面（OFF） */
      .screen-dark {
        animation: dark-anim 7s infinite;
      }
      @keyframes dark-anim {
        0%,19%  { opacity: 1; }
        29%     { opacity: 0; }
        89%     { opacity: 0; }
        93%     { opacity: 1; }
        100%    { opacity: 1; }
      }

      /* 画面周りのほんのりグロー */
      .screen-glow {
        animation: glow-anim 7s infinite;
        opacity: 0;
      }
      @keyframes glow-anim {
        0%,27%  { opacity: 0; }
        33%     { opacity: 1; }
        89%     { opacity: 1; }
        93%     { opacity: 0; }
        100%    { opacity: 0; }
      }

      /* 部屋の暗転（TV点灯前）→ TVをつけたら明るくなる */
      .room-overlay {
        animation: room-brighten 7s ease-in-out infinite;
        pointer-events: none;
      }
      @keyframes room-brighten {
        0%,  20% { opacity: 0.76; }   /* TV OFF：暗い部屋 */
        35%      { opacity: 0;    }   /* TV ON：明るくなる */
        89%      { opacity: 0;    }
        93%,100% { opacity: 0.76; }   /* リセット */
      }

      /* 手：1回だけリモコンを押す */
      .hand {
        animation: hand-move 7s ease-in-out infinite;
        transform: translate(270px, 230px);
      }
      @keyframes hand-move {
        0%,11%  { transform: translate(270px, 230px); }
        16%     { transform: translate(248px, 205px); }
        21%     { transform: translate(248px, 205px); }
        26%     { transform: translate(270px, 230px); }
        100%    { transform: translate(270px, 230px); }
      }
    </style>
  </defs>
  <g clip-path="url(#frame)">

  <!-- 壁 -->
  <rect width="300" height="300" fill="#fff9e6" rx="20"/>
  <!-- 壁と床の境目 -->
  <rect y="218" width="300" height="6" fill="#e8e0d0"/>

  <!-- 床 -->
  <rect y="222" width="300" height="78" fill="#8d6e63"/>
  <line x1="0" y1="240" x2="300" y2="240" stroke="#7b5e50" stroke-width="1.5" opacity="0.6"/>
  <line x1="0" y1="260" x2="300" y2="260" stroke="#7b5e50" stroke-width="1.5" opacity="0.6"/>
  <line x1="0" y1="280" x2="300" y2="280" stroke="#7b5e50" stroke-width="1.5" opacity="0.6"/>
  <line x1="80"  y1="222" x2="90"  y2="300" stroke="#7b5e50" stroke-width="1" opacity="0.4"/>
  <line x1="170" y1="222" x2="185" y2="300" stroke="#7b5e50" stroke-width="1" opacity="0.4"/>
  <line x1="250" y1="222" x2="265" y2="300" stroke="#7b5e50" stroke-width="1" opacity="0.4"/>

  <!-- TVラック -->
  <rect x="20" y="188" width="260" height="36" fill="#5d4037" rx="4"/>
  <rect x="20" y="188" width="260" height="7"  fill="#6d4c41" rx="3"/>
  <!-- ラックの足 -->
  <rect x="40"  y="224" width="18" height="14" fill="#4e342e" rx="2"/>
  <rect x="242" y="224" width="18" height="14" fill="#4e342e" rx="2"/>

  <!-- TV本体の光（ONのとき薄く光る） -->
  <rect class="screen-glow" x="44" y="42" width="212" height="155"
        fill="#a5d6fa" rx="10" opacity="0.25"/>

  <!-- TV本体 -->
  <rect x="46" y="44" width="208" height="150" fill="#1a1a1a" rx="9"/>
  <!-- TV下部パネル（ロゴ・ボタンエリア） -->
  <rect x="46" y="172" width="208" height="22" fill="#111111" rx="0"/>
  <rect x="46" y="188" width="208" height="6"  fill="#1a1a1a" rx="0"/>

  <!-- アンテナ -->
  <line x1="110" y1="44" x2="88"  y2="14" stroke="#616161" stroke-width="3.5" stroke-linecap="round"/>
  <line x1="190" y1="44" x2="212" y2="14" stroke="#616161" stroke-width="3.5" stroke-linecap="round"/>
  <circle cx="88"  cy="13" r="4.5" fill="#9e9e9e"/>
  <circle cx="212" cy="13" r="4.5" fill="#9e9e9e"/>

  <!-- ===== 画面エリア ===== -->
  <g clip-path="url(#screen-clip)">

    <!-- 暗い画面（OFF） -->
    <rect class="screen-dark" x="63" y="62" width="175" height="115" fill="#0d0d0d"/>

    <!-- 起動フラッシュ -->
    <rect class="screen-flash" x="63" y="62" width="175" height="115" fill="#ffffff"/>

    <!-- 画面コンテンツ（ON時） -->
    <g class="screen-content">
      <!-- 空 -->
      <rect x="63" y="62" width="175" height="68" fill="#42a5f5"/>
      <!-- 地面 -->
      <rect x="63" y="130" width="175" height="47" fill="#66bb6a"/>
      <!-- 丘 -->
      <ellipse cx="110" cy="131" rx="48" ry="16" fill="#81c784"/>
      <ellipse cx="210" cy="130" rx="38" ry="14" fill="#81c784"/>
      <!-- 太陽 -->
      <circle cx="208" cy="89" r="19" fill="#fff176"/>
      <line x1="208" y1="64" x2="208" y2="58" stroke="#ffe082" stroke-width="2.5" stroke-linecap="round"/>
      <line x1="208" y1="114" x2="208" y2="120" stroke="#ffe082" stroke-width="2.5" stroke-linecap="round"/>
      <line x1="183" y1="89" x2="177" y2="89" stroke="#ffe082" stroke-width="2.5" stroke-linecap="round"/>
      <line x1="233" y1="89" x2="239" y2="89" stroke="#ffe082" stroke-width="2.5" stroke-linecap="round"/>
      <line x1="191" y1="71" x2="186" y2="66" stroke="#ffe082" stroke-width="2.5" stroke-linecap="round"/>
      <line x1="225" y1="107" x2="230" y2="112" stroke="#ffe082" stroke-width="2.5" stroke-linecap="round"/>
      <!-- 雲 -->
      <ellipse cx="115" cy="88" rx="30" ry="14" fill="#ffffff" opacity="0.92"/>
      <ellipse cx="94"  cy="92" rx="17" ry="12" fill="#ffffff" opacity="0.92"/>
      <ellipse cx="134" cy="92" rx="17" ry="11" fill="#ffffff" opacity="0.92"/>
      <!-- 木 -->
      <rect x="79" y="120" width="6" height="14" fill="#5d4037"/>
      <ellipse cx="82" cy="114" rx="14" ry="14" fill="#388e3c"/>
      <!-- 小さな花 -->
      <circle cx="130" cy="143" r="4" fill="#f48fb1"/>
      <circle cx="138" cy="140" r="3" fill="#fff176"/>
      <circle cx="145" cy="144" r="4" fill="#f48fb1"/>
      <!-- スキャンライン（TV風） -->
      <rect x="63" y="62" width="175" height="115" fill="url(#scanlines)"/>
      <!-- 画面の光沢 -->
      <ellipse cx="108" cy="80" rx="36" ry="14" fill="#ffffff" opacity="0.06"/>
    </g>
  </g>

  <!-- 電源ボタン（画面下中央） -->
  <circle class="power-btn" cx="150" cy="181" r="5.5" fill="#424242"/>
  <!-- TVロゴ -->
  <rect x="112" y="178" width="26" height="7" fill="#222222" rx="2"/>

  <!-- リモコン -->
  <rect x="220" y="196" width="22" height="42" fill="#37474f" rx="8"/>
  <rect x="223" y="199" width="16" height="11" fill="#263238" rx="2"/>
  <!-- 電源ボタン -->
  <circle class="remote-btn" cx="231" cy="218" r="4.5" fill="#616161"/>
  <!-- 方向ボタン -->
  <circle cx="231" cy="228" r="2.5" fill="#546e7a"/>
  <circle cx="225" cy="228" r="2.5" fill="#546e7a"/>
  <circle cx="237" cy="228" r="2.5" fill="#546e7a"/>

  <!-- 部屋の暗転オーバーレイ（TV OFF時）-->
  <rect class="room-overlay" width="300" height="300" fill="#0a0a1e" rx="20"/>

  <!-- 手（リモコンを操作） -->
  <g class="hand">
    <!-- 手のひら -->
    <ellipse cx="0" cy="0" rx="12" ry="9" fill="#ffcc80" />
    <!-- 人差し指 -->
    <rect x="-4" y="-18" width="7" height="14" fill="#ffcc80" rx="3"/>
    <!-- 中指（短め） -->
    <rect x="4"  y="-14" width="6" height="12" fill="#ffcc80" rx="3"/>
    <!-- 親指 -->
    <rect x="-13" y="-6" width="10" height="6" fill="#ffcc80" rx="3"/>
  </g>
</g>
</svg>
